# AST/ASF file generated using VICON BodyLanguage
# -----------------------------------------------
:version 1.10
:name VICON
:units
  mass 1.0
  length 0.45
  angle deg
:documentation
   .ast/.asf automatically generated from VICON data using
   VICON BodyBuilder and BodyLanguage model FoxedUp or BRILLIANT.MOD
:root
   order TX TY TZ RX RY RZ
   axis XYZ
   position 0 0 0  
   orientation 0 0 0 
:bonedata
  begin
     id 1 
     name lhipjoint
     direction 0.573633 -0.743009 0.344793 
     length 2.46257 
     axis 0 0 0  XYZ
  end
  begin
     id 2 
     name lfemur
     direction 0.34202 -0.939693 0  
     length 7.3842  
     axis 0 0 20  XYZ
    dof rx ry rz
    limits (-160.0 20.0)
           (-70.0 70.0)
           (-60.0 70.0)
  end
  begin
     id 3 
     name ltibia
     direction 0.34202 -0.939693 0   
     length 7.50407   
     axis 0 0 20   XYZ
    dof rx
    limits (-10.0 170.0)
  end
  begin
     id 4 
     name lfoot
     direction 0.110749 -0.304281 0.946123   
     length 1.95925   
     axis -90 7.62852e-016 20   XYZ
    dof rx rz
    limits (-45.0 90.0)
           (-70.0 20.0)
  end
  begin
     id 5 
     name ltoes
     direction 1.53554e-011 -4.21843e-011 1   
     length 0.978318   
     axis -90 7.62852e-016 20   XYZ
    dof rx
    limits (-90.0 20.0)
  end
  begin
     id 6 
     name rhipjoint
     direction -0.488109 -0.791693 0.367385   
     length 2.31113  
     axis 0 0 0  XYZ 
  end
  begin
     id 7 
     name rfemur
     direction -0.34202 -0.939693 0   
     length 7.40965   
     axis 0 0 -20   XYZ
    dof rx ry rz
    limits (-160.0 20.0)
           (-70.0 70.0)
           (-70.0 60.0)
  end
  begin
     id 8 
     name rtibia
     direction -0.34202 -0.939693 0   
     length 7.55548   
     axis 0 0 -20   XYZ
    dof rx
    limits (-10.0 170.0)
 end
 begin
     id 9 
     name rfoot
     direction -0.127594 -0.350561 0.927808   
     length 2.07199  
     axis -90 -7.62852e-016 -20   XYZ
    dof rx rz
    limits (-45.0 90.0)
           (-20.0 70.0)
  end
  begin
     id 10 
     name rtoes
     direction -1.53542e-011 -4.21909e-011 1   
     length 1.02667   
     axis -90 -7.62852e-016 -20   XYZ
    dof rx
    limits (-90.0 20.0)
  end
  begin
     id 11 
     name lowerback
     direction -0.0103342 0.997298 -0.0727278   
     length 2.02836   
     axis 0 0 0   XYZ
    dof rx ry rz
    limits (-20.0 45.0)
           (-30.0 30.0)
           (-30.0 30.0)
  end
  begin
     id 12 
     name upperback
     direction 0.0171146 0.999786 -0.011606   
     length 2.03179   
     axis 0 0 0   XYZ
    dof rx ry rz
    limits (-20.0 45.0)
           (-30.0 30.0)
           (-30.0 30.0)
  end
  begin
     id 13 
     name thorax
     direction 0.0216927 0.999513 0.0224343   
     length 2.03882   
     axis 0 0 0   XYZ
    dof rx ry rz
    limits (-20.0 45.0)
           (-30.0 30.0)
           (-30.0 30.0)
  end
  begin
     id 14 
     name lowerneck
     direction 0.000989287 0.993907 0.110221   
     length 1.75428   
     axis 0 0 0   XYZ
    dof rx ry rz
    limits (-20.0 45.0)
           (-30.0 30.0)
           (-30.0 30.0)
  end
  begin
     id 15 
     name upperneck
     direction -0.0172474 0.994813 -0.100253   
     length 1.77058   
     axis 0 0 0   XYZ
    dof rx ry rz
    limits (-20.0 45.0)
           (-30.0 30.0)
           (-30.0 30.0)
  end
  begin
     id 16
     name head
     direction -0.00486455 0.99894 -0.0457663  
     length 1.77427  
     axis 0 0 0   XYZ
    dof rx ry rz
    limits (-20.0 45.0)
           (-30.0 30.0)
           (-30.0 30.0)
  end
  begin
     id 17 
     name lclavicle
     direction 0.927314 0.333734 -0.169441  
     length 3.97584  
     axis 0 0 0   XYZ
    dof ry rz
    limits (-20.0 10.0)
           (0.0 20.0)
  end
  begin
     id 18 
     name lhumerus
     direction 1 -4.48965e-011 -3.25313e-028   
     length 4.76468   
     axis 180 -30 -90   XYZ
    dof rx ry rz
    limits (-60.0 90.0)
           (-90.0 90.0)
           (-90.0 90.0)
  end
  begin
     id 19
     name lradius
     direction 1 -4.48969e-011 -2.8465e-028   
     length 3.52712   
     axis -180 -30 -90   XYZ
    dof rx
    limits (-10.0 170.0)
  end
  begin
     id 20
     name lwrist
     direction 1 -4.4896e-011 -7.78665e-028   
     length 1.76356   
     axis 1.91374e-015 90 90   XYZ
    dof ry
    limits (-180.0 0.0)
 end
  begin
     id 21 
     name lhand
     direction 1 -4.48959e-011 -1.55733e-027   
     length 0.859564   
     axis 9.9371e-016 90 90   XYZ
    dof rx rz
    limits (-90.0 90.0)
           (-45.0 45.0)
  end
  begin
     id 22 
     name lfingers
     direction 1 -4.48965e-011 -3.11466e-027   
     length 0.693002   
     axis 1.98742e-015 90 90   XYZ
    dof rx
    limits (0.0 90.0)
  end
  begin
     id 23
     name lthumb
     direction 0.707107 -6.34948e-011 0.707107   
     length 0.995017   
     axis -90 45 2.85299e-015   XYZ
    dof rx rz
    limits (-45.0 45.0)
           (-45.0 45.0)
  end
  begin
     id 24 
     name rclavicle
     direction -0.899388 0.348209 -0.264294   
     length 3.68366  
     axis 0 0 0   XYZ 
    dof ry rz
    limits (-10.0 20.0)
           (-20.0 0.0)
  end
  begin
     id 25 
     name rhumerus
     direction -1 -4.48965e-011 -3.01536e-027  
     length 4.90577   
     axis 180 30 90   XYZ
    dof rx ry rz
    limits (-90.0 60.0)
           (-90.0 90.0)
           (-90.0 90.0)
  end
  begin
     id 26 
     name rradius
     direction -1 -4.48966e-011 3.93291e-027   
     length 3.42692   
     axis -180 30 90   XYZ
    dof rx
    limits (-10.0 170.0)
  end
  begin
     id 27 
     name rwrist
     direction -1 -4.48969e-011 -7.78665e-028   
     length 1.71346   
     axis 1.91374e-015 -90 -90   XYZ
    dof ry
    limits (-180.0 0.0)
  end
  begin
     id 28
     name rhand
     direction -1 -4.48967e-011 -1.55733e-027   
     length 0.740957   
     axis 9.9371e-016 -90 -90   XYZ
    dof rx rz
    limits (-90.0 90.0)
           (-45.0 45.0)
  end
  begin
     id 29
     name rfingers
     direction -1 -4.48949e-011 -3.11466e-027   
     length 0.597378   
     axis 1.98742e-015 -90 -90   XYZ
    dof rx
    limits (0.0 90.0)
  end
  begin
     id 30
     name rthumb
     direction -0.707107 -6.34931e-011 0.707107   
     length 0.857719   
     axis -90 -45 -2.85299e-015   XYZ
    dof rx rz
    limits (-45.0 45.0)
           (-45.0 45.0)
  end
:hierarchy
  begin
    root lhipjoint rhipjoint lowerback
    lhipjoint lfemur
    lfemur ltibia
    ltibia lfoot
    lfoot ltoes
    rhipjoint rfemur
    rfemur rtibia
    rtibia rfoot
    rfoot rtoes
    lowerback upperback
    upperback thorax
    thorax lowerneck lclavicle rclavicle
    lowerneck upperneck
    upperneck head
    lclavicle lhumerus
    lhumerus lradius
    lradius lwrist
    lwrist lhand lthumb
    lhand lfingers
    rclavicle rhumerus
    rhumerus rradius
    rradius rwrist
    rwrist rhand rthumb
    rhand rfingers
  end

#!OML:ASF E:\I on waltz\AllaLogoMonkeySwing\Project 1\Capture day 1\Session 1\Subject1.ASF
:FULLY-SPECIFIED
:DEGREES
350
root -1.15856 17.8148 -3.1754 4.81894 60.6687 2.53785
lowerback 9.62646 -1.21078 -6.95765
upperback 0.488372 -2.29888 1.07987
thorax -4.57535 -0.975171 5.36085
lowerneck -10.6156 -7.46709 -8.37178
upperneck 23.8554 -10.5462 8.08363
head 10.2362 -4.6789 2.95288
rclavicle -4.09093e-014 -8.17502e-015
rhumerus -36.0818 -29.2718 -62.9676
rradius 24.548
rwrist -0.421825
rhand -8.73667 -37.5388
rfingers 7.12502
rthumb 17.1999 -66.7976
lclavicle -4.09093e-014 -8.17502e-015
lhumerus -51.2783 37.1985 39.6627
lradius 29.2437
lwrist -8.00765
lhand -16.2653 -6.0811
lfingers 7.12502
lthumb 9.94424 23.664
rfemur -6.54553 -21.2709 14.1959
rtibia 40.5154
rfoot -18.6995 -18.4868
rtoes 13.3965
lfemur -2.19252 14.0994 -17.5565
ltibia 16.1509
lfoot -12.8054 9.35667
ltoes -32.9217
351
root -1.19435 17.8121 -3.21263 4.62068 57.7603 2.31653
lowerback 9.40964 -1.05895 -7.01668
upperback 0.525895 -2.08685 1.08033
thorax -4.44233 -0.876151 5.35959
lowerneck -10.7862 -7.31142 -8.15843
upperneck 23.7881 -10.3175 7.8806
head 10.1975 -4.57891 2.87102
rclavicle 6.79813e-014 1.05853e-014
rhumerus -36.3645 -30.0935 -62.0286
rradius 24.2143
rwrist -0.418694
rhand -8.95743 -37.3884
rfingers 7.12502
rthumb 16.9874 -66.6656
lclavicle 6.79813e-014 1.05853e-014
lhumerus -51.1337 37.1524 39.3561
lradius 30.3257
lwrist -5.58004
lhand -17.1853 -6.40873
lfingers 7.12502
lthumb 9.0565 23.3768
rfemur -5.49782 -21.6555 14.1335
rtibia 38.1819
rfoot -18.76 -17.4194
rtoes 11.2478
lfemur -2.21432 15.2623 -17.6568
ltibia 16.4792
lfoot -12.4314 10.9523
ltoes -32.7892
352
root -1.23548 17.8069 -3.24572 4.48532 54.9528 2.12588
lowerback 9.21975 -0.971356 -7.08198
upperback 0.522959 -1.96417 1.08278
thorax -4.35436 -0.818289 5.37768
lowerneck -10.8769 -7.06814 -7.97756
upperneck 23.7919 -9.9708 7.69673
head 10.1622 -4.42567 2.82107
rclavicle -5.32432e-014 9.0447e-015
rhumerus -36.767 -31.0425 -61.1734
rradius 24.083
rwrist 0.0880122
rhand -9.06165 -37.2567
rfingers 7.12502
rthumb 16.8871 -66.5424
lclavicle -5.32432e-014 9.0447e-015
lhumerus -50.8632 36.6315 39.4799
lradius 31.5817
lwrist -2.61811
lhand -17.5335 -6.6611
lfingers 7.12502
lthumb 8.72056 23.1388
rfemur -4.46368 -21.6774 14.1077
rtibia 35.3388
rfoot -19.8191 -16.5327
rtoes 12.8994
lfemur -2.44492 16.3892 -17.7517
ltibia 16.9566
lfoot -11.9572 12.5959
ltoes -33.4568
353
root -1.28403 17.7964 -3.26995 3.83067 52.2977 1.33814
lowerback 9.08158 -0.926909 -6.79727
upperback 0.530201 -1.86103 1.19987
thorax -4.28885 -0.775259 5.32288
lowerneck -10.7807 -6.77406 -7.76886
upperneck 23.6827 -9.54825 7.46231
head 10.0407 -4.24696 2.76359
rclavicle 8.41139e-014 -7.55382e-015
rhumerus -37.0701 -31.9204 -60.4567
rradius 23.9297
rwrist 0.676447
rhand -9.20358 -37.2934
rfingers 7.12502
rthumb 16.7505 -66.5908
lclavicle 8.41139e-014 -7.55382e-015
lhumerus -50.4924 35.7313 40.012
lradius 33.0636
lwrist 0.411342
lhand -17.7821 -6.7743
lfingers 7.12502
lthumb 8.48062 23.0354
rfemur -3.35136 -21.329 14.6397
rtibia 32.1188
rfoot -20.4745 -16.2029
rtoes 14.9167
lfemur -2.77274 17.3257 -17.2846
ltibia 17.7079
lfoot -11.6407 14.263
ltoes -33.3926
354
root -1.34081 17.784 -3.2867 2.9093 49.7624 0.281637
lowerback 9.05443 -0.860842 -6.2955
upperback 0.569476 -1.71104 1.38179
thorax -4.2619 -0.711421 5.21095
lowerneck -10.7296 -6.54956 -7.59682
upperneck 23.6675 -9.20358 7.16636
head 9.96994 -4.11026 2.67831
rclavicle -4.96931e-014 1.08835e-014
rhumerus -36.9769 -32.2342 -60.1581
rradius 23.3925
rwrist 0.741222
rhand -9.38038 -37.4871
rfingers 7.12502
rthumb 16.5803 -66.7988
lclavicle -4.96931e-014 1.08835e-014
lhumerus -49.989 34.7461 40.8364
lradius 34.6807
lwrist 3.0755
lhand -18.6598 -6.97463
lfingers 7.12502
lthumb 7.63354 22.8676
rfemur -2.33425 -20.8355 15.5231
rtibia 29.3764
rfoot -20.6249 -16.0454
rtoes 14.6916
lfemur -3.18631 18.1877 -16.4268
ltibia 18.8932
lfoot -11.6644 15.9457
ltoes -32.2161
355
root -1.4028 17.771 -3.30868 2.06173 47.27 -0.654378
lowerback 9.20154 -0.805757 -5.72283
upperback 0.627962 -1.57945 1.52885
thorax -4.31138 -0.655382 5.02871
lowerneck -10.9423 -6.32946 -7.49629
upperneck 23.8908 -8.86736 6.94391
head 10.0455 -3.9656 2.62331
rclavicle -3.92165e-014 1.32689e-014
rhumerus -36.8397 -32.0034 -60.2966
rradius 23.0662
rwrist 0.354115
rhand -9.51963 -37.8032
rfingers 7.12502
rthumb 16.4462 -67.1261
lclavicle -3.92165e-014 1.32689e-014
lhumerus -49.3958 33.7898 41.8182
lradius 36.3838
lwrist 5.73934
lhand -18.4052 -7.09888
lfingers 7.12502
lthumb 7.87926 22.7343
rfemur -1.5858 -19.7732 16.4177
rtibia 27.3215
rfoot -20.8592 -15.5552
rtoes 13.3543
lfemur -3.76131 19.1033 -15.568
ltibia 20.5237
lfoot -11.7808 17.6778
ltoes -31.163
356
root -1.45945 17.7552 -3.34572 1.42308 44.7438 -1.39298
lowerback 9.39453 -0.775749 -5.04203
upperback 0.69961 -1.47241 1.62077
thorax -4.37209 -0.613826 4.73007
lowerneck -11.2258 -6.0489 -7.33935
upperneck 24.0231 -8.44654 6.7116
head 10.093 -3.77886 2.56436
rclavicle -4.92862e-014 -5.76476e-015
rhumerus -36.7897 -32.1653 -60.3463
rradius 22.9861
rwrist 0.484598
rhand -9.66897 -37.9003
rfingers 7.12502
rthumb 16.3024 -67.235
lclavicle -4.92862e-014 -5.76476e-015
lhumerus -48.711 32.6549 43.0787
lradius 38.1981
lwrist 8.67671
lhand -18.305 -7.3583
lfingers 7.12502
lthumb 7.97592 22.4712
rfemur -1.14626 -18.0836 17.1762
rtibia 25.6745
rfoot -20.9828 -14.5163
rtoes 12.5901
lfemur -4.52174 19.8429 -14.9104
ltibia 22.4047
lfoot -11.9867 19.3773
ltoes -29.7462
357
root -1.51225 17.7353 -3.38996 0.988959 42.218 -1.94618
lowerback 9.60033 -0.71212 -4.36313
upperback 0.75912 -1.32046 1.68192
thorax -4.45623 -0.549408 4.39437
lowerneck -11.4285 -5.76573 -7.10023
upperneck 23.9732 -8.01439 6.39845
head 10.053 -3.59319 2.4655
rclavicle 1.35174e-014 -5.26779e-015
rhumerus -36.7148 -32.8445 -60.1832
rradius 22.8153
rwrist 1.21931
rhand -9.63788 -37.6527
rfingers 7.12502
rthumb 16.3323 -66.9849
lclavicle 1.35174e-014 -5.26779e-015
lhumerus -47.9634 31.3772 44.5912
lradius 40.1739
lwrist 11.2856
lhand -17.7353 -7.55479
lfingers 7.12502
lthumb 8.52582 22.2531
rfemur -0.979332 -16.4993 17.7762
rtibia 24.7934
rfoot -20.9086 -13.1702
rtoes 12.2527
lfemur -5.48533 20.1695 -14.3888
ltibia 24.5811
lfoot -12.3644 20.7785
ltoes -27.8726
358
root -1.56419 17.7108 -3.43618 0.535645 39.7758 -2.50136
lowerback 9.95417 -0.644752 -3.69876
upperback 0.781798 -1.16553 1.77891
thorax -4.65791 -0.479487 4.10791
lowerneck -11.5526 -5.47144 -6.82042
upperneck 23.892 -7.57048 6.05304
head 9.98554 -3.40367 2.3517
rclavicle 1.43454e-013 -3.8266e-015
rhumerus -36.6154 -32.9152 -60.282
rradius 22.7664
rwrist 1.40647
rhand -9.41669 -37.4083
rfingers 7.12502
rthumb 16.5453 -66.7229
lclavicle 1.43454e-013 -3.8266e-015
lhumerus -47.3562 30.1627 46.1236
lradius 42.2543
lwrist 13.2178
lhand -17.6793 -7.77458
lfingers 7.12502
lthumb 8.57984 22.0311
rfemur -0.987045 -15.1147 18.353
rtibia 24.15
rfoot -20.5562 -11.7275
rtoes 12.9968
lfemur -6.55823 20.0154 -13.7098
ltibia 27.1795
lfoot -12.8011 21.722
ltoes -26.6389
359
root -1.61189 17.6855 -3.48458 -0.099884 37.4188 -3.31505
lowerback 10.378 -0.63181 -2.90279
upperback 0.812397 -1.05739 1.98484
thorax -4.88366 -0.4349 3.86803
lowerneck -11.6363 -5.15128 -6.51961
upperneck 23.7841 -7.09546 5.70136
head 9.90084 -3.1995 2.23676
rclavicle -4.55652e-015 8.89561e-015
rhumerus -36.4652 -32.4015 -60.6758
rradius 22.964
rwrist 1.19836
rhand -9.19911 -37.3639
rfingers 7.12502
rthumb 16.7548 -66.6609
lclavicle -4.55652e-015 8.89561e-015
lhumerus -47.0029 29.298 47.5282
lradius 44.4053
lwrist 14.5687
lhand -17.5749 -8.38216
lfingers 7.12502
lthumb 8.68056 21.4194
rfemur -1.28804 -14.1029 19.1955
rtibia 24.1783
rfoot -20.4499 -10.3187
rtoes 13.5473
lfemur -7.64249 19.2704 -12.6646
ltibia 29.9812
lfoot -12.9431 22.2864
ltoes -26.0589
360
root -1.65247 17.6634 -3.52994 -0.936755 35.151 -4.37527
lowerback 10.7603 -0.662794 -2.01058
upperback 0.95637 -0.978825 2.32776
thorax -4.96191 -0.410563 3.7181
lowerneck -11.7947 -4.8356 -6.27892
upperneck 23.6847 -6.62194 5.39029
head 9.8412 -2.99525 2.144
rclavicle 2.89309e-014 -1.14301e-014
rhumerus -36.0175 -31.4591 -61.3521
rradius 23.2497
rwrist 0.695327
rhand -9.16029 -37.3016
rfingers 7.12502
rthumb 16.7921 -66.5954
lclavicle 2.89309e-014 -1.14301e-014
lhumerus -46.7623 29.0206 48.9513
lradius 46.6548
lwrist 15.3257
lhand -17.2009 -9.06284
lfingers 7.12502
lthumb 9.04152 20.7234
rfemur -1.68969 -13.2335 20.3345
rtibia 24.6677
rfoot -20.4937 -9.26964
rtoes 12.8352
lfemur -8.59328 18.1927 -11.2215
ltibia 32.7432
lfoot -12.5362 22.2873
ltoes -25.39
361
root -1.67706 17.6571 -3.57614 -0.574011 32.9049 -3.6387
lowerback 10.8405 -0.595127 -2.66958
upperback 1.11225 -0.970667 2.31815
thorax -4.83279 -0.39823 4.08065
lowerneck -11.9177 -4.50647 -5.97393
upperneck 23.52 -6.13583 5.04544
head 9.75055 -2.78411 2.03043
rclavicle -3.37934e-014 -3.65267e-015
rhumerus -35.3111 -30.772 -61.8908
rradius 23.1406
rwrist 0.558828
rhand -8.71038 -37.0842
rfingers 7.12502
rthumb 17.2252 -66.3408
lclavicle -3.37934e-014 -3.65267e-015
lhumerus -46.5085 29.1564 50.5177
lradius 48.9006
lwrist 15.5922
lhand -16.8064 -9.75992
lfingers 7.12502
lthumb 9.42216 20.0095
rfemur -2.27527 -12.4324 19.6652
rtibia 25.2066
rfoot -20.6266 -8.16791
rtoes 12.2005
lfemur -9.59093 17.0973 -11.6111
ltibia 35.2257
lfoot -11.8488 21.2473
ltoes -23.7973
